<?xml version="1.0" encoding="utf-8"?>
<!-- Generator: Adobe Illustrator 16.0.3, SVG Export Plug-In . SVG Version: 6.00 Build 0)  -->
<!DOCTYPE svg PUBLIC "-//W3C//DTD SVG 1.1//EN" "http://www.w3.org/Graphics/SVG/1.1/DTD/svg11.dtd">
<svg version="1.1" id="Ebene_1" xmlns="http://www.w3.org/2000/svg" xmlns:xlink="http://www.w3.org/1999/xlink" x="0px" y="0px"
	 width="841.89px" height="309px" viewBox="0 0 841.89 309" enable-background="new 0 0 841.89 309" xml:space="preserve">
<g>
	<g>
		<defs>
			<polygon id="SVGID_1_" points="496.022,103.009 564.292,103.016 615.237,51.995 546.954,51.982 			"/>
		</defs>
		<clipPath id="SVGID_2_">
			<use xlink:href="#SVGID_1_"  overflow="visible"/>
		</clipPath>
		
			<linearGradient id="SVGID_3_" gradientUnits="userSpaceOnUse" x1="-921.6289" y1="705.2559" x2="-920.2637" y2="705.2559" gradientTransform="matrix(87.5664 -0.5867 -0.5867 -87.5664 81613.3438 61293.9102)">
			<stop  offset="0" style="stop-color:#9FBBD7"/>
			<stop  offset="0.1268" style="stop-color:#7FA4C6"/>
			<stop  offset="0.2869" style="stop-color:#5E8CB4"/>
			<stop  offset="0.424" style="stop-color:#487FA9"/>
			<stop  offset="0.5212" style="stop-color:#407AA6"/>
			<stop  offset="0.5984" style="stop-color:#3A78A4"/>
			<stop  offset="0.6793" style="stop-color:#2A719F"/>
			<stop  offset="0.7616" style="stop-color:#006696"/>
			<stop  offset="0.7818" style="stop-color:#006394"/>
			<stop  offset="0.9576" style="stop-color:#003865"/>
			<stop  offset="1" style="stop-color:#003865"/>
		</linearGradient>
		<polygon clip-path="url(#SVGID_2_)" fill="url(#SVGID_3_)" points="495.665,51.989 615.237,51.185 615.58,103.009 496.022,103.82 
					"/>
	</g>
	<polygon fill="#FFED00" points="567.744,87.471 559.851,87.471 557.444,80.081 555.052,87.485 547.146,87.471 553.54,91.995 
		551.161,99.297 557.444,94.773 563.742,99.297 561.35,91.995 	"/>
	<polygon fill="#FFED00" points="544.506,74.69 550.789,70.173 557.087,74.69 554.694,67.389 561.089,62.886 553.209,62.886 
		550.789,55.488 548.383,62.886 540.505,62.886 546.898,67.389 	"/>
	<g>
		<defs>
			<polygon id="SVGID_4_" points="504.973,38.272 497.108,38.267 503.502,42.782 501.096,50.084 507.38,45.574 513.678,50.084 
				511.299,42.782 517.678,38.267 509.814,38.267 507.38,30.882 			"/>
		</defs>
		<clipPath id="SVGID_5_">
			<use xlink:href="#SVGID_4_"  overflow="visible"/>
		</clipPath>
		
			<linearGradient id="SVGID_6_" gradientUnits="userSpaceOnUse" x1="-924.3477" y1="688.3262" x2="-922.9817" y2="688.3262" gradientTransform="matrix(-23.2268 -53.4831 -53.4831 23.2268 15885.1143 -65306.7852)">
			<stop  offset="0" style="stop-color:#9FBBD7"/>
			<stop  offset="0.7636" style="stop-color:#006394"/>
			<stop  offset="1" style="stop-color:#006394"/>
		</linearGradient>
		<polygon clip-path="url(#SVGID_5_)" fill="url(#SVGID_6_)" points="500.368,57.605 490.069,33.928 514.421,23.368 524.691,47.039 
					"/>
	</g>
	<g>
		<defs>
			<polygon id="SVGID_7_" points="479.907,44.894 472.042,44.887 478.422,49.404 476.044,56.705 482.341,52.188 488.625,56.705 
				486.231,49.404 492.625,44.887 484.733,44.887 482.328,37.489 			"/>
		</defs>
		<clipPath id="SVGID_8_">
			<use xlink:href="#SVGID_7_"  overflow="visible"/>
		</clipPath>
		
			<linearGradient id="SVGID_9_" gradientUnits="userSpaceOnUse" x1="-924.3418" y1="688.4551" x2="-922.9758" y2="688.4551" gradientTransform="matrix(-23.2279 -53.4857 -53.4857 23.2279 15869.458 -65302.4844)">
			<stop  offset="0" style="stop-color:#9FBBD7"/>
			<stop  offset="0.7636" style="stop-color:#006394"/>
			<stop  offset="1" style="stop-color:#006394"/>
		</linearGradient>
		<polygon clip-path="url(#SVGID_8_)" fill="url(#SVGID_9_)" points="475.301,64.22 465.016,40.542 489.367,29.968 499.639,53.652 
					"/>
	</g>
	<g>
		<defs>
			<polygon id="SVGID_10_" points="461.578,62.955 453.712,62.947 460.094,67.464 457.701,74.766 463.998,70.256 470.282,74.766 
				467.889,67.464 474.283,62.947 466.404,62.947 463.998,55.557 			"/>
		</defs>
		<clipPath id="SVGID_11_">
			<use xlink:href="#SVGID_10_"  overflow="visible"/>
		</clipPath>
		
			<linearGradient id="SVGID_12_" gradientUnits="userSpaceOnUse" x1="-924.334" y1="688.5537" x2="-922.968" y2="688.5537" gradientTransform="matrix(-23.2257 -53.4804 -53.4804 23.2257 15851.252 -65288.3008)">
			<stop  offset="0" style="stop-color:#9FBBD7"/>
			<stop  offset="0.7636" style="stop-color:#006394"/>
			<stop  offset="1" style="stop-color:#006394"/>
		</linearGradient>
		<polygon clip-path="url(#SVGID_11_)" fill="url(#SVGID_12_)" points="456.972,82.287 446.687,58.602 471.024,48.028 
			481.31,71.721 		"/>
	</g>
	<g>
		<defs>
			<polygon id="SVGID_13_" points="454.854,87.567 446.976,87.547 453.368,92.064 450.977,99.365 457.261,94.855 463.558,99.365 
				461.165,92.064 467.56,87.547 459.681,87.547 457.261,80.156 			"/>
		</defs>
		<clipPath id="SVGID_14_">
			<use xlink:href="#SVGID_13_"  overflow="visible"/>
		</clipPath>
		
			<linearGradient id="SVGID_15_" gradientUnits="userSpaceOnUse" x1="-924.333" y1="688.6338" x2="-922.967" y2="688.6338" gradientTransform="matrix(-23.2268 -53.4831 -53.4831 23.2268 15841.7393 -65287.0508)">
			<stop  offset="0" style="stop-color:#9FBBD7"/>
			<stop  offset="0.7636" style="stop-color:#006394"/>
			<stop  offset="1" style="stop-color:#006394"/>
		</linearGradient>
		<polygon clip-path="url(#SVGID_14_)" fill="url(#SVGID_15_)" points="450.247,106.887 439.963,83.202 464.301,72.627 
			474.571,96.319 		"/>
	</g>
	<g>
		<defs>
			<polygon id="SVGID_16_" points="461.578,112.235 453.712,112.229 460.094,116.746 457.701,124.047 463.998,119.516 
				470.282,124.047 467.889,116.746 474.283,112.229 466.404,112.229 463.998,104.824 			"/>
		</defs>
		<clipPath id="SVGID_17_">
			<use xlink:href="#SVGID_16_"  overflow="visible"/>
		</clipPath>
		
			<linearGradient id="SVGID_18_" gradientUnits="userSpaceOnUse" x1="-924.3423" y1="688.6533" x2="-922.9763" y2="688.6533" gradientTransform="matrix(-23.2279 -53.4857 -53.4857 23.2279 15840.0205 -65289.75)">
			<stop  offset="0" style="stop-color:#9FBBD7"/>
			<stop  offset="0.7636" style="stop-color:#006394"/>
			<stop  offset="1" style="stop-color:#006394"/>
		</linearGradient>
		<polygon clip-path="url(#SVGID_17_)" fill="url(#SVGID_18_)" points="456.972,131.562 446.687,107.863 471.024,97.303 
			481.31,120.994 		"/>
	</g>
	<g>
		<defs>
			<polygon id="SVGID_19_" points="479.963,130.29 472.069,130.29 478.464,134.8 476.07,142.108 482.368,137.578 488.666,142.108 
				486.272,134.8 492.653,130.29 484.775,130.29 482.354,122.885 			"/>
		</defs>
		<clipPath id="SVGID_20_">
			<use xlink:href="#SVGID_19_"  overflow="visible"/>
		</clipPath>
		
			<linearGradient id="SVGID_21_" gradientUnits="userSpaceOnUse" x1="-924.3462" y1="688.5938" x2="-922.9823" y2="688.5938" gradientTransform="matrix(-23.2257 -53.4804 -53.4804 23.2257 15843.9395 -65285.9883)">
			<stop  offset="0" style="stop-color:#9FBBD7"/>
			<stop  offset="0.7636" style="stop-color:#006394"/>
			<stop  offset="1" style="stop-color:#006394"/>
		</linearGradient>
		<polygon clip-path="url(#SVGID_20_)" fill="url(#SVGID_21_)" points="475.342,149.609 465.056,125.931 489.381,115.371 
			499.666,139.055 		"/>
	</g>
	<g>
		<defs>
			<polygon id="SVGID_22_" points="504.987,136.835 497.108,136.821 503.502,141.337 501.11,148.639 507.394,144.129 
				513.678,148.639 511.299,141.337 517.678,136.821 509.814,136.821 507.394,129.423 			"/>
		</defs>
		<clipPath id="SVGID_23_">
			<use xlink:href="#SVGID_22_"  overflow="visible"/>
		</clipPath>
		
			<linearGradient id="SVGID_24_" gradientUnits="userSpaceOnUse" x1="-924.3452" y1="688.5088" x2="-922.9798" y2="688.5088" gradientTransform="matrix(-23.228 -53.4858 -53.4858 23.228 15859.6914 -65298.6211)">
			<stop  offset="0" style="stop-color:#9FBBD7"/>
			<stop  offset="0.7636" style="stop-color:#006394"/>
			<stop  offset="1" style="stop-color:#006394"/>
		</linearGradient>
		<polygon clip-path="url(#SVGID_23_)" fill="url(#SVGID_24_)" points="500.368,156.16 490.069,132.469 514.421,121.888 
			524.706,145.586 		"/>
	</g>
	<g>
		<defs>
			<polygon id="SVGID_25_" points="530.014,130.29 522.135,130.29 528.515,134.8 526.121,142.108 532.42,137.578 538.718,142.108 
				536.324,134.8 542.704,130.29 534.84,130.29 532.42,122.885 			"/>
		</defs>
		<clipPath id="SVGID_26_">
			<use xlink:href="#SVGID_25_"  overflow="visible"/>
		</clipPath>
		
			<linearGradient id="SVGID_27_" gradientUnits="userSpaceOnUse" x1="-924.3311" y1="688.3906" x2="-922.9651" y2="688.3906" gradientTransform="matrix(-23.2269 -53.4831 -53.4831 23.2269 15876.3271 -65302.0391)">
			<stop  offset="0" style="stop-color:#9FBBD7"/>
			<stop  offset="0.7636" style="stop-color:#006394"/>
			<stop  offset="1" style="stop-color:#006394"/>
		</linearGradient>
		<polygon clip-path="url(#SVGID_26_)" fill="url(#SVGID_27_)" points="525.393,149.609 515.107,125.931 539.445,115.371 
			549.73,139.055 		"/>
	</g>
	<g>
		<defs>
			<polygon id="SVGID_28_" points="548.383,112.235 540.505,112.229 546.898,116.746 544.506,124.047 550.789,119.516 
				557.087,124.047 554.694,116.746 561.089,112.229 553.209,112.229 550.789,104.824 			"/>
		</defs>
		<clipPath id="SVGID_29_">
			<use xlink:href="#SVGID_28_"  overflow="visible"/>
		</clipPath>
		
			<linearGradient id="SVGID_30_" gradientUnits="userSpaceOnUse" x1="-924.3491" y1="688.2793" x2="-922.9832" y2="688.2793" gradientTransform="matrix(-23.228 -53.4859 -53.4859 23.228 15892.9629 -65313.3438)">
			<stop  offset="0" style="stop-color:#9FBBD7"/>
			<stop  offset="0.7636" style="stop-color:#006394"/>
			<stop  offset="1" style="stop-color:#006394"/>
		</linearGradient>
		<polygon clip-path="url(#SVGID_29_)" fill="url(#SVGID_30_)" points="543.777,131.562 533.491,107.863 557.829,97.303 
			568.115,120.994 		"/>
	</g>
	<g>
		<defs>
			<polygon id="SVGID_31_" points="530.081,44.9 522.203,44.887 528.596,49.411 526.191,56.711 532.502,52.188 538.8,56.711 
				536.394,49.411 542.786,44.887 534.894,44.887 532.488,37.502 			"/>
		</defs>
		<clipPath id="SVGID_32_">
			<use xlink:href="#SVGID_31_"  overflow="visible"/>
		</clipPath>
		
			<linearGradient id="SVGID_33_" gradientUnits="userSpaceOnUse" x1="-924.3467" y1="688.2334" x2="-922.9807" y2="688.2334" gradientTransform="matrix(-23.2268 -53.4831 -53.4831 23.2268 15898.9268 -65312.7383)">
			<stop  offset="0" style="stop-color:#9FBBD7"/>
			<stop  offset="0.7636" style="stop-color:#006394"/>
			<stop  offset="1" style="stop-color:#006394"/>
		</linearGradient>
		<polygon clip-path="url(#SVGID_32_)" fill="url(#SVGID_33_)" points="525.476,64.233 515.19,40.542 539.529,29.968 549.813,53.66 
					"/>
	</g>
	<g>
		<defs>
			<rect id="SVGID_34_" x="442.74" y="30.875" width="339.26" height="133.343"/>
		</defs>
		<clipPath id="SVGID_35_">
			<use xlink:href="#SVGID_34_"  overflow="visible"/>
		</clipPath>
		<path clip-path="url(#SVGID_35_)" fill="#003865" d="M589.868,115.247h4.825c1.649,0,2.571,0.165,3.425,0.99
			c0.577,0.563,0.948,1.361,0.948,2.426c0,2.235-1.623,2.813-2.296,3.06c0.812,0.22,2.709,0.791,2.709,3.376
			c0,1.835-1.183,2.77-1.637,3.073c-0.936,0.604-1.98,0.604-3.052,0.604h-4.923V115.247z M591.684,120.967h2.64
			c0.618,0,2.806,0,2.806-2.131c0-2.049-1.721-2.049-2.738-2.049h-2.707V120.967z M591.684,127.265h3.217
			c1.472,0,2.654-0.771,2.654-2.338c0-1.348-0.935-2.344-2.586-2.344h-3.285V127.265z"/>
		<path clip-path="url(#SVGID_35_)" fill="#003865" d="M607.414,115.247h2.007l5.473,13.53h-2.021l-1.472-3.506h-6.283l-1.457,3.506
			h-1.939L607.414,115.247z M605.722,123.745h5.114l-2.502-6.641L605.722,123.745z"/>
		<polygon clip-path="url(#SVGID_35_)" fill="#003865" points="619.321,123.462 614.041,115.247 616.365,115.247 620.352,121.888 
			624.395,115.247 626.498,115.247 621.205,123.559 621.205,128.777 619.321,128.777 		"/>
		<polygon clip-path="url(#SVGID_35_)" fill="#003865" points="628.794,115.24 637.306,115.24 637.306,116.842 630.664,116.842 
			630.664,121.063 636.977,121.063 636.977,122.644 630.664,122.644 630.664,127.141 637.443,127.141 637.443,128.777 
			628.794,128.777 		"/>
		<path clip-path="url(#SVGID_35_)" fill="#003865" d="M641.418,115.24h4.825c0.688,0,2.118,0,3.122,0.64
			c1.005,0.639,1.498,1.677,1.498,2.764c0,0.962-0.357,1.801-0.962,2.406c-0.577,0.578-1.184,0.77-1.595,0.88
			c1.292,0.33,1.87,0.908,2.063,2.599c0.178,1.595,0.314,2.764,0.851,4.249h-2.006c-0.316-0.88-0.497-2.543-0.633-3.562
			c-0.221-1.979-0.688-2.543-2.957-2.543h-2.352v6.105h-1.855V115.24z M643.219,121.077h2.97c0.207,0,1.278,0,1.774-0.302
			c0.261-0.138,0.936-0.64,0.936-1.754c0-2.207-1.967-2.207-2.71-2.207h-2.97V121.077z"/>
		<polygon clip-path="url(#SVGID_35_)" fill="#003865" points="655.044,115.24 657.657,115.24 664.326,126.447 664.326,115.24 
			666.044,115.24 666.044,128.777 663.625,128.777 656.749,117.296 656.749,128.777 655.044,128.777 		"/>
		<path clip-path="url(#SVGID_35_)" fill="#003865" d="M675.944,127.086l3.396-3.341c0.715-0.688,1.431-1.444,2.007-2.228
			c0.743-1.031,0.964-1.622,0.964-2.31c0-0.646-0.234-2.118-2.091-2.118c-2.076,0-2.118,1.774-2.118,2.269h-1.979
			c0.027-0.64,0.082-1.871,1.211-2.846c0.893-0.777,1.994-0.936,2.817-0.936c1.981,0,4.016,1.003,4.016,3.782
			c0,0.825-0.055,1.457-1.472,3.245c-0.37,0.468-2.021,2.172-2.393,2.558l-2.282,2.159h6.175v1.457h-8.251V127.086z"/>
		<path clip-path="url(#SVGID_35_)" fill="#003865" d="M691.522,115.549c3.878,0,4.346,4.167,4.346,6.601
			c0,3.079-0.604,4.812-1.801,5.912c-0.907,0.859-2.009,0.99-2.586,0.99c-1.719,0-2.915-1.011-3.465-2.159
			c-0.438-0.859-0.853-2.118-0.853-4.441C687.164,120.527,687.397,115.549,691.522,115.549 M691.495,127.499
			c2.174,0,2.559-2.854,2.559-5.184c0-3.107-0.536-5.267-2.503-5.267c-2.282,0-2.57,2.984-2.57,5.308
			C688.98,125.243,689.545,127.499,691.495,127.499"/>
		<path clip-path="url(#SVGID_35_)" fill="#003865" d="M701.78,117.853c-0.796,0.68-2.103,1.45-3.01,1.876v-1.876
			c1.21-0.64,2.405-1.424,3.148-2.042h1.663v12.966h-1.802V117.853z"/>
		<path clip-path="url(#SVGID_35_)" fill="#003865" d="M713.813,125.972h-5.858v-2.227l5.639-8.106h2.021v8.821h1.884v1.512h-1.884
			v2.805h-1.802V125.972z M713.867,124.459v-6.847l-4.482,6.847H713.867z"/>
		<rect x="722.021" y="123.111" clip-path="url(#SVGID_35_)" fill="#003865" width="9.377" height="1.348"/>
		<path clip-path="url(#SVGID_35_)" fill="#003865" d="M736.433,127.086l3.396-3.341c0.716-0.688,1.43-1.444,2.008-2.228
			c0.77-1.031,0.962-1.622,0.962-2.31c0-0.646-0.22-2.118-2.076-2.118c-2.076,0-2.116,1.774-2.116,2.269h-1.967
			c0.014-0.64,0.067-1.871,1.196-2.846c0.906-0.777,1.979-0.936,2.804-0.936c1.98,0,4.016,1.003,4.016,3.782
			c0,0.825-0.042,1.457-1.457,3.245c-0.371,0.468-2.035,2.172-2.407,2.558l-2.269,2.159h6.175v1.457h-8.264V127.086z"/>
		<path clip-path="url(#SVGID_35_)" fill="#003865" d="M752.012,115.549c3.89,0,4.357,4.167,4.357,6.601
			c0,3.079-0.632,4.812-1.814,5.912c-0.908,0.859-1.994,0.99-2.585,0.99c-1.719,0-2.902-1.011-3.465-2.159
			c-0.426-0.859-0.853-2.118-0.853-4.441C747.652,120.527,747.886,115.549,752.012,115.549 M751.982,127.499
			c2.201,0,2.559-2.854,2.559-5.184c0-3.107-0.536-5.267-2.502-5.267c-2.283,0-2.571,2.984-2.571,5.308
			C749.468,125.243,750.017,127.499,751.982,127.499"/>
		<path clip-path="url(#SVGID_35_)" fill="#003865" d="M759.216,127.086l3.396-3.341c0.702-0.688,1.43-1.444,2.009-2.228
			c0.756-1.031,0.962-1.622,0.962-2.31c0-0.646-0.219-2.118-2.075-2.118c-2.077,0-2.132,1.774-2.132,2.269h-1.967
			c0.027-0.64,0.068-1.871,1.21-2.846c0.894-0.777,1.98-0.936,2.807-0.936c1.979,0,4.015,1.003,4.015,3.782
			c0,0.825-0.055,1.457-1.459,3.245c-0.371,0.468-2.035,2.172-2.404,2.558l-2.27,2.159h6.16v1.457h-8.251V127.086z"/>
		<path clip-path="url(#SVGID_35_)" fill="#003865" d="M774.795,115.549c3.878,0,4.346,4.167,4.346,6.601
			c0,3.079-0.619,4.812-1.802,5.912c-0.921,0.859-1.993,0.99-2.585,0.99c-1.732,0-2.916-1.011-3.479-2.159
			c-0.426-0.859-0.839-2.118-0.839-4.441C770.437,120.527,770.671,115.549,774.795,115.549 M774.769,127.499
			c2.185,0,2.557-2.854,2.557-5.184c0-3.107-0.551-5.267-2.517-5.267c-2.27,0-2.572,2.984-2.572,5.308
			C772.236,125.243,772.802,127.499,774.769,127.499"/>
		<polygon clip-path="url(#SVGID_35_)" fill="#003865" points="622.647,61.469 653.999,61.469 653.999,69.431 634.103,69.431 
			634.103,77.963 652.845,77.963 652.845,85.814 634.103,85.814 634.103,94.566 654.454,94.566 654.454,102.528 622.647,102.528 		
			"/>
		<polygon clip-path="url(#SVGID_35_)" fill="#003865" points="664.229,61.469 693.765,61.469 693.765,69.486 675.737,69.486 
			675.737,79.049 692.5,79.049 692.5,86.949 675.737,86.949 675.737,102.528 664.229,102.528 		"/>
		<path clip-path="url(#SVGID_35_)" fill="#003865" d="M702.099,61.469h19.331c1.885,0,3.493,0.055,4.827,0.117
			c1.334,0.076,2.488,0.227,3.479,0.433c0.977,0.207,1.829,0.509,2.557,0.908c0.73,0.399,1.39,0.901,2.009,1.506
			c0.303,0.309,0.633,0.681,0.976,1.134c0.345,0.453,0.675,1.003,0.964,1.65c0.302,0.646,0.535,1.389,0.7,2.255
			c0.18,0.846,0.262,1.815,0.262,2.922c0,1.135-0.097,2.111-0.315,2.922c-0.221,0.818-0.482,1.525-0.84,2.131
			c-0.344,0.619-0.771,1.114-1.223,1.512c-0.482,0.399-0.963,0.743-1.459,1.053c-1.361,0.832-2.625,1.381-3.781,1.615
			c-1.156,0.248-2.035,0.413-2.611,0.481v0.234c2.006,0.076,3.602,0.337,4.771,0.797c1.169,0.455,2.063,1.114,2.695,1.96
			c0.646,0.853,1.087,1.89,1.347,3.101c0.248,1.209,0.496,2.612,0.729,4.207c0.109,0.674,0.232,1.458,0.343,2.331
			c0.111,0.874,0.263,1.767,0.398,2.667c0.166,0.914,0.345,1.808,0.564,2.702c0.206,0.894,0.428,1.699,0.661,2.42h-12.609
			c-0.329-1.251-0.604-2.654-0.798-4.208c-0.207-1.56-0.398-3.245-0.578-5.067c-0.123-1.244-0.247-2.296-0.412-3.155
			c-0.165-0.853-0.412-1.54-0.783-2.063c-0.357-0.536-0.907-0.921-1.637-1.169c-0.756-0.247-1.76-0.378-3.079-0.378h-4.854v16.04
			h-11.632V61.469z M713.73,79.111h4.346c1.265,0,2.254-0.014,2.969-0.041c0.701-0.014,1.32-0.124,1.829-0.303
			c0.605-0.192,1.114-0.488,1.513-0.88c0.412-0.413,0.729-0.832,0.962-1.286c0.221-0.461,0.386-0.9,0.454-1.34
			c0.097-0.427,0.125-0.825,0.125-1.169c0-1.237-0.249-2.228-0.743-2.929c-0.509-0.702-1.142-1.196-1.91-1.499
			c-0.771-0.31-1.624-0.481-2.546-0.543c-0.922-0.062-1.829-0.083-2.652-0.083h-4.346V79.111z"/>
		<polygon clip-path="url(#SVGID_35_)" fill="#003865" points="746.978,61.469 778.315,61.469 778.315,69.431 758.419,69.431 
			758.419,77.963 777.16,77.963 777.16,85.814 758.419,85.814 758.419,94.566 778.783,94.566 778.783,102.528 746.978,102.528 		"/>
	</g>
</g>
<g>
	<g>
		<rect x="28.218" y="28.2" fill="#164194" width="372.137" height="248.088"/>
		<path fill="#164194" d="M214.279,152.255"/>
	</g>
	<g>
		<polygon fill="#FFED00" points="206.36,82.264 214.196,76.533 222.062,82.264 219.067,72.996 227.039,67.264 217.22,67.264 
			214.196,57.883 211.187,67.264 201.368,67.264 209.34,72.996 		"/>
		<polygon fill="#FFED00" points="165.713,93.176 173.555,87.445 181.414,93.176 178.428,83.908 186.406,78.184 176.571,78.184 
			173.555,68.787 170.554,78.184 160.735,78.184 168.691,83.908 		"/>
		<polygon fill="#FFED00" points="143.842,98.59 140.826,107.987 131.007,107.973 138.971,113.711 135.984,122.979 143.842,117.249 
			151.693,122.979 148.698,113.711 156.662,107.973 146.844,107.973 		"/>
		<polygon fill="#FFED00" points="132.923,157.829 140.772,163.552 137.779,154.299 145.766,148.567 135.939,148.567 
			132.923,139.179 129.914,148.583 120.08,148.567 128.065,154.299 125.079,163.552 		"/>
		<polygon fill="#FFED00" points="146.844,189.276 143.842,179.879 140.826,189.283 131.007,189.276 138.971,195.007 
			135.984,204.26 143.842,198.529 151.693,204.26 148.698,195.007 156.662,189.276 		"/>
		<polygon fill="#FFED00" points="176.625,219.057 173.616,209.675 170.615,219.072 160.796,219.057 168.76,224.788 
			165.773,234.064 173.616,228.325 181.481,234.064 178.487,224.788 186.466,219.057 		"/>
		<polygon fill="#FFED00" points="217.22,229.856 214.211,220.459 211.201,229.871 201.376,229.856 209.34,235.587 206.36,244.848 
			214.211,239.116 222.068,244.848 219.067,235.587 227.039,229.856 		"/>
		<polygon fill="#FFED00" points="257.808,219.057 254.806,209.675 251.79,219.072 241.971,219.057 249.935,224.788 
			246.948,234.064 254.806,228.325 262.648,234.064 259.662,224.788 267.626,219.057 		"/>
		<polygon fill="#FFED00" points="287.597,189.276 284.579,179.879 281.578,189.283 271.759,189.276 279.723,195.007 
			276.736,204.26 284.579,198.529 292.438,204.26 289.451,195.007 297.415,189.276 		"/>
		<polygon fill="#FFED00" points="308.214,148.455 298.396,148.455 295.379,139.058 292.377,148.47 282.528,148.455 
			290.521,154.178 287.535,163.446 295.379,157.708 303.222,163.446 300.235,154.178 		"/>
		<polygon fill="#FFED00" points="276.736,122.852 284.579,117.12 292.438,122.852 289.451,113.59 297.415,107.867 287.597,107.867 
			284.579,98.478 281.578,107.881 271.759,107.867 279.723,113.59 		"/>
		<polygon fill="#FFED00" points="254.896,68.795 251.91,78.199 242.076,78.184 250.024,83.916 247.069,93.184 254.927,87.445 
			262.77,93.184 259.769,83.916 267.762,78.184 257.913,78.184 		"/>
	</g>
</g>
<g>
	<g>
		<defs>
			<rect id="SVGID_36_" x="438.74" y="164.219" width="359.148" height="121.877"/>
		</defs>
		<clipPath id="SVGID_37_">
			<use xlink:href="#SVGID_36_"  overflow="visible"/>
		</clipPath>
		<path clip-path="url(#SVGID_37_)" d="M782.173,275.272h-330.25v-95.219h330.25V275.272z M783.47,178.757h-1.297h-330.25h-1.297
			v1.296v95.219v1.297h1.297h330.25h1.297v-1.297v-95.219V178.757z"/>
		<rect x="451.921" y="180.052" clip-path="url(#SVGID_37_)" fill="#E52620" width="330.252" height="47.609"/>
		<rect x="451.921" y="227.444" clip-path="url(#SVGID_37_)" fill="#FFFFFF" width="330.252" height="47.611"/>
		<g clip-path="url(#SVGID_37_)">
			<defs>
				<rect id="SVGID_38_" x="438.74" y="164.219" width="359.148" height="121.877"/>
			</defs>
			<clipPath id="SVGID_39_">
				<use xlink:href="#SVGID_38_"  overflow="visible"/>
			</clipPath>
			<path clip-path="url(#SVGID_39_)" fill="#FFFFFF" d="M465.257,203.974c0-4.313,1.159-7.688,3.476-10.128
				c2.315-2.441,5.305-3.662,8.97-3.662c2.397,0,4.561,0.572,6.487,1.72c1.924,1.146,3.395,2.745,4.402,4.793
				c1.012,2.051,1.518,4.377,1.518,6.977c0,2.634-0.531,4.994-1.595,7.073c-1.065,2.081-2.572,3.654-4.522,4.726
				c-1.95,1.069-4.053,1.603-6.31,1.603c-2.447,0-4.633-0.591-6.558-1.771c-1.927-1.183-3.387-2.796-4.38-4.842
				C465.753,208.418,465.257,206.256,465.257,203.974 M468.802,204.028c0,3.133,0.844,5.599,2.526,7.401
				c1.685,1.802,3.796,2.702,6.337,2.702c2.588,0,4.717-0.911,6.389-2.728c1.673-1.821,2.512-4.404,2.512-7.749
				c0-2.113-0.358-3.959-1.074-5.538c-0.716-1.578-1.761-2.801-3.138-3.669s-2.922-1.302-4.637-1.302
				c-2.433,0-4.527,0.834-6.282,2.507C469.678,197.325,468.802,200.119,468.802,204.028"/>
			<path clip-path="url(#SVGID_39_)" fill="#FFFFFF" d="M497.049,216.633v-25.988h9.751c1.984,0,3.575,0.265,4.776,0.788
				c1.197,0.527,2.14,1.336,2.818,2.43c0.68,1.093,1.02,2.236,1.02,3.431c0,1.109-0.301,2.155-0.904,3.138
				c-0.603,0.98-1.512,1.771-2.731,2.375c1.571,0.458,2.782,1.247,3.625,2.357c0.846,1.109,1.269,2.421,1.269,3.933
				c0,1.219-0.257,2.35-0.771,3.395c-0.513,1.048-1.151,1.854-1.906,2.422c-0.757,0.565-1.704,0.993-2.845,1.284
				c-1.141,0.29-2.539,0.436-4.192,0.436H497.049z M500.488,201.564h5.619c1.524,0,2.615-0.101,3.28-0.301
				c0.874-0.258,1.532-0.691,1.976-1.294c0.443-0.604,0.664-1.359,0.664-2.269c0-0.864-0.205-1.624-0.62-2.279
				s-1.003-1.104-1.773-1.346c-0.768-0.241-2.085-0.362-3.952-0.362h-5.193V201.564z M500.488,213.565h6.47
				c1.109,0,1.891-0.042,2.339-0.124c0.794-0.143,1.455-0.379,1.986-0.708c0.532-0.333,0.97-0.814,1.312-1.445
				c0.342-0.633,0.515-1.363,0.515-2.191c0-0.968-0.25-1.81-0.745-2.525c-0.495-0.717-1.185-1.217-2.063-1.507
				c-0.883-0.291-2.147-0.433-3.805-0.433h-6.008V213.565z"/>
			<polygon clip-path="url(#SVGID_39_)" fill="#FFFFFF" points="524.126,216.632 524.126,190.646 542.916,190.646 542.916,193.712 
				527.565,193.712 527.565,201.669 541.941,201.669 541.941,204.719 527.565,204.719 527.565,213.564 543.521,213.564 
				543.521,216.632 			"/>
			<path clip-path="url(#SVGID_39_)" fill="#FFFFFF" d="M550.973,216.633v-25.988h11.522c2.314,0,4.076,0.233,5.281,0.7
				c1.206,0.466,2.17,1.292,2.892,2.474c0.718,1.179,1.082,2.487,1.082,3.917c0,1.841-0.597,3.397-1.792,4.66
				c-1.192,1.266-3.038,2.07-5.532,2.412c0.91,0.438,1.604,0.869,2.075,1.294c1.003,0.923,1.958,2.074,2.855,3.457l4.519,7.074
				h-4.325l-3.438-5.407c-1.004-1.561-1.833-2.754-2.481-3.582c-0.65-0.827-1.232-1.408-1.749-1.737
				c-0.513-0.332-1.036-0.56-1.568-0.693c-0.389-0.08-1.027-0.124-1.913-0.124h-3.988v11.542H550.973z M554.412,202.114h7.393
				c1.571,0,2.801-0.161,3.685-0.488c0.887-0.324,1.562-0.846,2.022-1.561c0.46-0.713,0.69-1.49,0.69-2.329
				c0-1.232-0.446-2.24-1.339-3.031c-0.892-0.794-2.299-1.188-4.227-1.188h-8.225V202.114z"/>
			<polygon clip-path="url(#SVGID_39_)" fill="#FFFFFF" points="579.965,216.632 579.965,190.646 597.496,190.646 597.496,193.712 
				583.403,193.712 583.403,201.761 595.6,201.761 595.6,204.825 583.403,204.825 583.403,216.632 			"/>
			<path clip-path="url(#SVGID_39_)" fill="#FFFFFF" d="M604.668,216.633v-25.988h11.521c2.314,0,4.077,0.233,5.283,0.7
				c1.205,0.466,2.167,1.292,2.889,2.474c0.72,1.179,1.082,2.487,1.082,3.917c0,1.841-0.598,3.397-1.791,4.66
				c-1.195,1.266-3.038,2.07-5.53,2.412c0.909,0.438,1.601,0.869,2.074,1.294c1.003,0.923,1.955,2.074,2.854,3.457l4.521,7.074
				h-4.325l-3.439-5.407c-1.005-1.561-1.833-2.754-2.481-3.582c-0.65-0.827-1.233-1.408-1.747-1.737
				c-0.515-0.332-1.036-0.56-1.567-0.693c-0.391-0.08-1.028-0.124-1.915-0.124h-3.988v11.542H604.668z M608.106,202.114h7.392
				c1.57,0,2.801-0.161,3.688-0.488c0.887-0.324,1.56-0.846,2.021-1.561c0.461-0.713,0.691-1.49,0.691-2.329
				c0-1.232-0.445-2.24-1.339-3.031c-0.892-0.794-2.303-1.188-4.227-1.188h-8.226V202.114z"/>
			<path clip-path="url(#SVGID_39_)" fill="#FFFFFF" d="M630.627,216.632l9.979-25.985h3.705l10.636,25.985h-3.917l-3.031-7.871
				h-10.866l-2.854,7.871H630.627z M638.125,205.96h8.808l-2.71-7.195c-0.825-2.189-1.44-3.983-1.844-5.392
				c-0.329,1.667-0.797,3.323-1.4,4.966L638.125,205.96z"/>
			<polygon clip-path="url(#SVGID_39_)" fill="#FFFFFF" points="660.311,216.632 660.311,190.646 663.839,190.646 677.488,211.049 
				677.488,190.646 680.785,190.646 680.785,216.632 677.258,216.632 663.605,196.211 663.605,216.632 			"/>
			<polygon clip-path="url(#SVGID_39_)" fill="#FFFFFF" points="689.071,216.632 689.071,190.646 692.51,190.646 692.51,203.531 
				705.415,190.646 710.077,190.646 699.173,201.174 710.556,216.632 706.018,216.632 696.764,203.48 692.51,207.625 
				692.51,216.632 			"/>
			<polygon clip-path="url(#SVGID_39_)" fill="#FFFFFF" points="716.149,216.632 716.149,190.646 734.939,190.646 734.939,193.712 
				719.588,193.712 719.588,201.669 733.965,201.669 733.965,204.719 719.588,204.719 719.588,213.564 735.542,213.564 
				735.542,216.632 			"/>
			<polygon clip-path="url(#SVGID_39_)" fill="#FFFFFF" points="742.908,216.632 742.908,190.646 746.437,190.646 760.086,211.049 
				760.086,190.646 763.386,190.646 763.386,216.632 759.853,216.632 746.206,196.211 746.206,216.632 			"/>
			<path clip-path="url(#SVGID_39_)" d="M518.969,255.892l3.244-0.282c0.153,1.299,0.512,2.364,1.074,3.2
				c0.56,0.832,1.431,1.507,2.613,2.02c1.18,0.514,2.511,0.771,3.988,0.771c1.312,0,2.472-0.195,3.476-0.584
				c1.003-0.392,1.752-0.926,2.242-1.605c0.487-0.68,0.734-1.421,0.734-2.225c0-0.814-0.236-1.527-0.708-2.138
				c-0.472-0.609-1.253-1.117-2.342-1.532c-0.698-0.272-2.237-0.695-4.626-1.269c-2.387-0.572-4.06-1.111-5.015-1.621
				c-1.242-0.651-2.166-1.456-2.775-2.418c-0.609-0.965-0.913-2.041-0.913-3.236c0-1.312,0.371-2.536,1.115-3.677
				c0.747-1.141,1.833-2.007,3.262-2.598c1.432-0.591,3.021-0.888,4.77-0.888c1.926,0,3.625,0.312,5.095,0.931
				c1.473,0.621,2.604,1.536,3.397,2.739c0.792,1.206,1.216,2.573,1.276,4.095l-3.298,0.25c-0.178-1.642-0.779-2.884-1.801-3.721
				c-1.022-0.841-2.531-1.261-4.528-1.261c-2.079,0-3.596,0.381-4.548,1.144c-0.948,0.763-1.426,1.684-1.426,2.757
				c0,0.934,0.337,1.701,1.012,2.305c0.661,0.602,2.391,1.222,5.183,1.851c2.796,0.633,4.715,1.185,5.755,1.657
				c1.512,0.698,2.63,1.582,3.351,2.65c0.718,1.071,1.081,2.303,1.081,3.698c0,1.382-0.396,2.683-1.188,3.908
				c-0.794,1.225-1.933,2.173-3.413,2.855c-1.483,0.679-3.153,1.019-5.01,1.019c-2.349,0-4.323-0.346-5.909-1.029
				c-1.591-0.685-2.838-1.717-3.743-3.095C519.493,259.188,519.016,257.629,518.969,255.892"/>
			<polygon clip-path="url(#SVGID_39_)" points="553.615,264.241 553.615,241.321 545.052,241.321 545.052,238.256 565.653,238.256 
				565.653,241.321 557.055,241.321 557.055,264.241 			"/>
			<rect x="572.413" y="238.254" clip-path="url(#SVGID_39_)" width="3.438" height="25.986"/>
			<polygon clip-path="url(#SVGID_39_)" points="584.743,264.241 584.743,238.256 602.274,238.256 602.274,241.321 588.182,241.321 
				588.182,249.37 600.378,249.37 600.378,252.436 588.182,252.436 588.182,264.241 			"/>
			<polygon clip-path="url(#SVGID_39_)" points="616.002,264.241 616.002,241.321 607.44,241.321 607.44,238.256 628.039,238.256 
				628.039,241.321 619.441,241.321 619.441,264.241 			"/>
			<path clip-path="url(#SVGID_39_)" d="M651.271,238.254h3.438v15.015c0,2.611-0.296,4.686-0.886,6.221
				c-0.593,1.539-1.659,2.788-3.201,3.75s-3.565,1.443-6.07,1.443c-2.436,0-4.426-0.417-5.974-1.258
				c-1.55-0.841-2.653-2.054-3.314-3.643c-0.664-1.59-0.993-3.76-0.993-6.514v-15.015h3.441v14.997c0,2.258,0.208,3.92,0.626,4.991
				c0.42,1.069,1.142,1.894,2.162,2.472c1.023,0.577,2.271,0.869,3.751,0.869c2.527,0,4.33-0.574,5.406-1.72
				c1.074-1.146,1.613-3.351,1.613-6.612V238.254z"/>
			<polygon clip-path="url(#SVGID_39_)" points="663.049,264.241 663.049,238.256 666.576,238.256 680.226,258.659 680.226,238.256 
				683.525,238.256 683.525,264.241 679.995,264.241 666.346,243.821 666.346,264.241 			"/>
			<path clip-path="url(#SVGID_39_)" d="M704.113,254.049V251l11.008-0.019v9.644c-1.689,1.349-3.434,2.359-5.229,3.039
				c-1.795,0.683-3.639,1.021-5.53,1.021c-2.553,0-4.872-0.547-6.959-1.641c-2.084-1.093-3.659-2.674-4.723-4.741
				c-1.063-2.07-1.596-4.379-1.596-6.932c0-2.527,0.529-4.89,1.586-7.082c1.058-2.19,2.58-3.819,4.565-4.882
				c1.985-1.066,4.272-1.598,6.86-1.598c1.879,0,3.578,0.304,5.098,0.913c1.517,0.61,2.707,1.457,3.57,2.543
				c0.863,1.09,1.52,2.508,1.968,4.256l-3.103,0.851c-0.39-1.323-0.873-2.365-1.453-3.12c-0.58-0.757-1.406-1.361-2.482-1.817
				c-1.076-0.455-2.269-0.683-3.58-0.683c-1.572,0-2.933,0.238-4.077,0.718c-1.147,0.478-2.071,1.108-2.775,1.888
				c-0.702,0.781-1.249,1.636-1.639,2.57c-0.663,1.606-0.993,3.35-0.993,5.23c0,2.314,0.398,4.252,1.195,5.813
				c0.798,1.559,1.961,2.717,3.485,3.475c1.524,0.755,3.143,1.133,4.856,1.133c1.489,0,2.943-0.285,4.361-0.857
				c1.418-0.573,2.494-1.185,3.226-1.835v-4.839H704.113z"/>
		</g>
	</g>
</g>
<g>
</g>
<g>
</g>
<g>
</g>
<g>
</g>
<g>
</g>
<g>
</g>
</svg>
