<?xml version="1.0" encoding="utf-8"?>
<!-- Generator: Adobe Illustrator 16.0.3, SVG Export Plug-In . SVG Version: 6.00 Build 0)  -->
<!DOCTYPE svg PUBLIC "-//W3C//DTD SVG 1.1//EN" "http://www.w3.org/Graphics/SVG/1.1/DTD/svg11.dtd">
<svg version="1.1" id="Ebene_1" xmlns="http://www.w3.org/2000/svg" xmlns:xlink="http://www.w3.org/1999/xlink" x="0px" y="0px"
	 width="534px" height="213px" viewBox="0 0 534 213" enable-background="new 0 0 534 213" xml:space="preserve">
<g>
	<path fill="#004F9F" d="M266.385,69.674V55.556c0-9.052,6.793-14.575,15.447-14.575c8.768,0,15.504,5.01,15.504,13.776v13.778
		c0,9.052-6.736,14.574-15.388,14.574C273.353,83.11,266.385,78.498,266.385,69.674z M293.678,68.877V54.701
		c0-6.547-4.762-10.475-12.021-10.475c-6.736,0-11.614,4.384-11.614,11.386v13.492c0,6.662,4.82,10.817,11.905,10.817
		C288.566,79.921,293.678,75.823,293.678,68.877z"/>
	<path fill="#004F9F" d="M306.045,41.721h15.272c6.968,0,11.555,3.417,11.555,9.963c0,4.44-2.845,8.368-7.665,9.508v0.057
		c5.809,0.854,8.885,5.067,8.885,9.906c0,7.685-6.154,11.215-12.483,11.215h-15.563V41.721z M319.924,59.996
		c4.876,0,9.35-2.39,9.35-7.742c0-5.238-3.892-7.457-8.828-7.457h-10.743v15.199H319.924z M320.737,79.295
		c5.399,0,9.639-2.562,9.639-8.255c0-5.58-4.355-8.027-9.756-8.027h-10.918v16.282H320.737z"/>
	<path fill="#004F9F" d="M341.989,41.777h25.841v3.19h-22.184v14.801h18.351V62.9h-18.351v16.282h22.299v3.188h-25.956V41.777z"/>
	<path fill="#004F9F" d="M376.248,41.721h14.111c7.954,0,13.356,4.442,13.356,11.899c0,5.807-3.427,10.703-10.743,11.727
		l12.602,17.023h-4.182l-12.311-16.737h-9.176V82.37h-3.658V41.721z M389.257,62.614c6.908,0,10.8-2.846,10.8-9.052
		c0-5.863-4.18-8.766-10.857-8.766h-9.293v17.818H389.257z"/>
	<path fill="#004F9F" d="M267.188,90.643h24.493v3.189h-20.978v14.915h17.128v3.133h-17.128v19.355h-3.516V90.643z"/>
	<path fill="#004F9F" d="M297.371,90.586h13.557c7.644,0,12.832,4.441,12.832,11.899c0,5.807-3.291,10.702-10.321,11.727
		l12.106,17.022h-4.018L309.7,114.496h-8.814v16.738h-3.515V90.586z M309.868,111.48c6.64,0,10.377-2.847,10.377-9.052
		c0-5.864-4.017-8.768-10.434-8.768h-8.926v17.82H309.868z"/>
	<path fill="#004F9F" d="M343.287,90.529h3.346l14.619,40.705h-3.682l-4.465-12.81h-16.626l-4.575,12.81h-3.515L343.287,90.529z
		 M352.102,115.409l-7.197-20.61h-0.055l-7.366,20.61H352.102z"/>
	<path fill="#004F9F" d="M366.997,90.586h3.626l21.592,34.386h0.111V90.586h3.348v40.648h-3.459L370.4,96.336h-0.111v34.898h-3.292
		V90.586z"/>
	<path fill="#004F9F" d="M404.098,90.586h3.515v22.09l20.364-22.09h4.297l-14.786,15.999l15.733,24.65h-4.128l-13.948-22.032
		l-7.532,7.857v14.175h-3.515V90.586z"/>
	<path fill="#004F9F" d="M438.073,90.643H462.9v3.189h-21.313v14.801h17.63v3.131h-17.63v16.284h21.425v3.187h-24.939V90.643z"/>
	<path fill="#004F9F" d="M470.151,90.586h3.627l21.592,34.386h0.11V90.586h3.349v40.648h-3.459l-21.815-34.898h-0.111v34.898h-3.292
		V90.586z"/>
</g>
<g>
	<path fill="#B3B3B3" d="M283.148,169.112h-17.451v-5.702l15.474-25.362h8.317l-15.938,25.13h9.598v-6.573l7.214-3.782v10.355h4.942
		v5.935h-4.942v10.471h-7.214V169.112z"/>
	<path fill="#B3B3B3" d="M318.638,167.89v-17.742c0-8.608,7.038-12.738,14.542-12.738s14.311,4.013,14.311,12.797v17.509
		c0,8.32-7.097,12.565-14.369,12.565C325.851,180.28,318.638,176.73,318.638,167.89z M339.753,167.542v-17.625
		c0-3.55-2.27-6.4-6.573-6.4c-4.305,0-6.748,2.908-6.748,6.631V167.6c0,3.548,2.268,6.572,6.689,6.572
		C337.483,174.172,339.753,171.031,339.753,167.542z"/>
	<path fill-rule="evenodd" clip-rule="evenodd" fill="#B3B3B3" d="M310.834,175.246c0,2.504-2.029,4.533-4.529,4.533
		s-4.529-2.029-4.529-4.533c0-2.499,2.029-4.527,4.529-4.527S310.834,172.747,310.834,175.246z"/>
</g>
<g>
	<path fill="#C6C6C6" d="M96.891,193.504c-3.185,0-6.673-2.321-9.665-4.593c-1.921-1.461-4.467-6.552-4.999-10.517
		c-4.613-0.693-8.179-2.504-10.62-5.399c-2.554-3.029-3.838-7.103-3.885-12.377l-6.84,3.581c-0.643,0.338-1.491,0.429-2.17,0.173
		l-10.878-4.12l-0.961,4.195c-0.181,0.795-0.733,1.455-1.483,1.774c-1.108,0.472-2.422,0.712-3.908,0.712
		c-6.112,0-14.263-3.995-18.17-8.905c-0.63-0.793-1.887-1.556-3.126-1.902c-6.699-1.876-6.385-7.255-6.196-10.469
		c0.058-0.983,0.111-1.914,0.012-2.638c-0.119-0.868-0.016-2.184,1.155-3.527c2.476-2.84,8.837-4.324,11.553-4.324
		c1.057,0,1.839,0.197,2.464,0.622c1.517,1.029,3.026,1.552,4.485,1.552c2.921,0,5.122-2.092,6.173-3.34
		c3.381-4.009,6.339-9.36,8.554-15.474c0.296-0.814,0.5-1.682,0.716-2.598c0.802-3.405,1.896-8.05,8.909-8.488
		c0.613-0.52,1.905-2.516,3.013-5.343c0.592-1.512,0.759-3.338,0.953-5.452c0.018-0.2,0.037-0.401,0.056-0.604
		c-2.947-0.385-5.188-1.418-6.828-3.129c-2.15-2.243-3.105-5.475-2.918-9.882c0.029-0.676-1.411-2.409-2.461-3.674
		c-0.877-1.057-1.871-2.253-2.779-3.594c-0.527-0.78-0.581-1.787-0.14-2.618c0.441-0.832,1.305-1.352,2.247-1.352
		c1.139,0,2.212,0.015,3.237,0.028c0.917,0.012,1.795,0.024,2.65,0.024c1.438,0,2.542-0.034,3.579-0.111
		c0.26-0.02,0.577-0.117,0.925-0.253c-0.143-0.333-0.29-0.626-0.407-0.726c-0.462-0.393-1.209-0.723-2-1.071
		c-1.151-0.508-2.455-1.083-3.536-2.128l-0.754-0.723c-2.434-2.324-5.192-4.957-6.409-8.287c-0.668-1.83-0.669-3.44-0.003-4.788
		c1.032-2.091,3.195-2.769,4.934-3.314c0.734-0.23,1.493-0.468,1.891-0.732c4.091-2.719,8.057-4.041,12.126-4.041
		c4.537,0,9.103,1.672,13.96,5.11c1.572,1.115,4.239,1.834,6.794,1.834c1.128,0,2.149-0.144,2.952-0.417
		c4.042-1.366,7.613-0.665,9.688,1.79c1.404,1.659,1.987,3.93,1.6,6.231c-0.371,2.206-0.247,3.778,0.359,4.547
		c0.852,1.08,3.237,1.325,6.035,1.516c0.435,0.03,0.838,0.111,1.236,0.226c0.083-0.794,0.17-1.583,0.255-2.367
		c0.452-4.134,0.879-8.039,0.845-11.908c-0.025-2.833-0.578-5.696-1.163-8.727c-0.287-1.484-0.583-3.019-0.813-4.556
		c-0.142-0.96-0.355-2.404,0.03-3.809c1.301-4.698,13.48-10.429,18.708-10.429c1.2,0,2.17,0.243,2.966,0.744
		c2.897,1.82,3.163,6.763,3.183,7.321c0.027,0.743,0.011,1.476-0.007,2.194c-0.078,3.17-0.107,4.357,3.073,5.471
		c2.357,0.823,4.715,3.425,7.125,6.249c0.238,0.279,0.507,0.594,0.736,0.854c0.731,0.013,1.465,0.038,2.198,0.064
		c0.975,0.034,1.95,0.069,2.919,0.069c1.342,0,2.423-0.069,3.404-0.216c2.454-0.368,4.877-1.175,7.444-2.029
		c0.715-0.238,1.429-0.475,2.144-0.704c0.484-0.153,0.961-0.32,1.436-0.484c1.848-0.641,3.759-1.304,5.858-1.304
		c2.465,0,4.639,0.915,6.634,2.793c0.096,0.012,0.24,0.024,0.44,0.024c1.279,0,2.609-0.456,2.907-0.704
		c2.38-2.367,4.75-3.574,7.029-3.574c2.404,0,5.729,1.288,7.911,7.426c2.226,6.266,5.189,8.962,10.928,9.947
		c3.043,0.523,5.336,2.271,6.461,4.924c1.25,2.947,0.876,6.669-0.962,10.293c1.137,0.775,2.359,1.668,3.297,2.904
		c0.594,0.783,1.274,1.586,1.994,2.437c2.547,3.011,5.183,6.124,5.336,9.802c0.246,6.097,0.624,9.992,5.062,13.132
		c0.873,0.618,1.405,1.668,1.582,3.122c0.171,1.393,0.095,4.485-1.401,6.216c-5.521,6.358-11.985,12.318-21.849,12.892
		c-7.355,0.427-15.175,1.233-23.25,2.402c-3.103,0.447-3.828,1.179-3.996,1.473c-0.227,0.397-0.408,1.544,0.921,4.762
		c0.106,0.258,0.389,0.642,0.662,1.012c0.597,0.811,1.34,1.818,1.555,3.153c0.486,3.059,0.802,6.252-1.071,8.79
		c-1.349,1.828-3.56,2.939-6.758,3.395c-7.887,1.131-13.658,4.678-18.713,11.504c-4.326,5.841-6.793,12.157-8.248,21.118
		c-0.121,0.747-0.567,1.398-1.218,1.784c-0.649,0.382-1.437,0.459-2.149,0.205l-5.3-1.896l-4.9,5.57
		c-0.46,0.523-1.114,0.833-1.81,0.861c-0.71,0.016-1.372-0.231-1.872-0.716c-1.139-1.107-5.687-3.573-8.063-4.559
		c-4.565,6.634-11.682,8.021-18.013,9.257c-1.103,0.215-2.199,0.427-3.274,0.667C97.795,193.456,97.348,193.504,96.891,193.504z
		 M70.489,153.754c0.5,0,1,0.148,1.429,0.44c0.775,0.527,1.198,1.438,1.101,2.369c-0.634,6.025,0.2,10.449,2.478,13.152
		c1.944,2.308,5.029,3.567,9.432,3.854c0.759,0.05,1.456,0.435,1.899,1.051c0.444,0.618,0.589,1.401,0.396,2.137
		c-0.375,1.469,1.907,7.071,3.1,8.118c3.088,2.345,5.305,3.541,6.567,3.541c0.086,0,0.164-0.006,0.224-0.02
		c1.117-0.25,2.259-0.473,3.408-0.697c6.283-1.227,12.217-2.383,15.541-8.349c0.485-0.873,1.405-1.392,2.46-1.392
		c1.901,0,7.23,2.685,10.45,4.781l4.503-5.117c0.688-0.783,1.785-1.063,2.766-0.715l4.1,1.464
		c1.652-8.274,4.307-14.481,8.641-20.332c5.849-7.897,12.866-12.19,22.082-13.512c1.207-0.173,2.773-0.551,3.385-1.379
		c0.706-0.956,0.456-2.979,0.141-4.967c-0.049-0.152-0.396-0.624-0.626-0.938c-0.434-0.587-0.925-1.254-1.27-2.085
		c-1.153-2.794-2.269-6.367-0.639-9.228c1.586-2.782,4.942-3.593,7.688-3.988c8.215-1.188,16.185-2.011,23.681-2.446
		c7.512-0.436,12.731-4.742,18.244-11.079c0.214-0.429,0.338-1.624,0.262-2.298c-6.2-4.711-6.459-11.069-6.688-16.697
		c-0.079-1.932-2.235-4.477-4.135-6.723c-0.731-0.864-1.489-1.758-2.162-2.648c-0.551-0.723-1.509-1.37-2.524-2.054
		c-0.57-0.385-1.137-0.77-1.666-1.179c-1.063-0.824-1.302-2.333-0.544-3.444c1.9-2.784,2.575-5.699,1.767-7.608
		c-0.443-1.046-1.306-1.667-2.639-1.896c-7.576-1.301-12.019-5.266-14.859-13.257c-0.9-2.531-2.064-4.043-3.118-4.043
		c-0.848,0-2.109,0.769-3.458,2.11c-1.72,1.711-4.881,2.168-6.478,2.168c-1.665,0-2.929-0.418-3.757-1.242
		c-1.404-1.396-2.51-1.575-3.317-1.575c-1.242,0-2.674,0.497-4.191,1.023c-0.516,0.179-1.036,0.359-1.56,0.525
		c-0.692,0.221-1.386,0.452-2.082,0.683c-2.659,0.885-5.409,1.8-8.296,2.232c-1.236,0.186-2.558,0.273-4.159,0.273
		c-1.029,0-2.063-0.036-3.097-0.072c-0.849-0.03-1.697-0.06-2.542-0.067c-0.143,0.025-0.286,0.038-0.432,0.038
		c-1.373,0-2.041-0.782-3.652-2.671c-1.101-1.29-3.68-4.311-4.935-4.749c-6.679-2.339-6.564-6.998-6.481-10.399
		c0.016-0.616,0.033-1.246,0.01-1.882c-0.052-1.389-0.476-2.701-0.793-3.15c-0.063-0.006-0.153-0.013-0.272-0.013
		c-4.076,0-12.989,4.937-13.826,6.757c-0.079,0.303,0.05,1.176,0.119,1.645c0.214,1.427,0.5,2.908,0.777,4.34
		c0.603,3.121,1.226,6.349,1.255,9.646c0.036,4.169-0.406,8.219-0.875,12.506c-0.199,1.816-0.4,3.659-0.566,5.54
		c-0.068,0.777-0.489,1.479-1.143,1.906c-0.653,0.427-1.466,0.529-2.205,0.281c-0.736-0.248-1.324-0.475-1.818-0.667
		c-0.488-0.189-0.994-0.384-1.166-0.396c-3.279-0.224-7.362-0.502-9.68-3.441c-1.564-1.982-2.016-4.777-1.382-8.542
		c0.136-0.81-0.038-1.596-0.467-2.102c-0.701-0.828-2.227-0.916-4.171-0.257c-1.341,0.455-2.884,0.686-4.585,0.686
		c-3.595,0-7.325-1.062-9.735-2.771c-3.967-2.809-7.572-4.174-11.02-4.174c-3.035,0-6.081,1.043-9.31,3.19
		c-1.001,0.666-2.162,1.029-3.186,1.351c-0.585,0.183-1.534,0.48-1.866,0.72c0.006,0.118,0.042,0.365,0.193,0.782
		c0.809,2.214,3.012,4.317,5.143,6.352l0.775,0.742c0.431,0.417,1.221,0.765,2.057,1.134c1.037,0.458,2.213,0.977,3.24,1.849
		c1.238,1.052,1.791,2.541,2.234,3.737c0.144,0.387,0.285,0.776,0.454,1.133c0.307,0.644,0.329,1.386,0.061,2.047
		c-0.267,0.661-0.8,1.179-1.467,1.428c-0.364,0.136-0.725,0.302-1.086,0.465c-1.05,0.475-2.239,1.014-3.629,1.119
		c-1.172,0.086-2.392,0.125-3.958,0.125c-0.206,0-0.412-0.001-0.621-0.002c1.65,2.022,3.049,3.997,2.949,6.316
		c-0.123,2.905,0.385,4.973,1.508,6.145c1.119,1.167,3.06,1.734,5.935,1.734c0.737,0,1.46,0.319,1.944,0.875
		c0.483,0.556,0.725,1.294,0.623,2.023c-0.147,1.045-0.242,2.083-0.334,3.086c-0.22,2.396-0.427,4.658-1.282,6.843
		c-2.182,5.566-4.609,8.443-7.216,8.555c-3.446,0.149-3.731,1.357-4.492,4.588c-0.229,0.972-0.488,2.072-0.885,3.166
		c-2.417,6.669-5.684,12.554-9.447,17.017c-2.798,3.321-6.372,5.149-10.063,5.149c-2.361,0-4.698-0.731-6.953-2.174
		c-2.252,0.002-6.609,1.438-7.618,2.464c0.106,1.087,0.042,2.177-0.02,3.235c-0.2,3.418-0.138,4.535,2.488,5.271
		c2.289,0.64,4.435,1.999,5.737,3.635c3.275,4.118,10.106,6.985,14.188,6.985c0.292,0,0.55-0.014,0.777-0.037l1.268-5.539
		c0.165-0.716,0.631-1.325,1.278-1.674c0.648-0.346,1.414-0.397,2.102-0.135l12.539,4.748l9.865-5.165
		C69.68,153.851,70.084,153.754,70.489,153.754z"/>
	<g>
		<path fill="#004F9F" d="M90.857,122.701H67.85v-7.516l20.4-33.436h10.967l-21.014,33.129h12.654v-8.665l9.509-4.985v13.65h6.519
			v7.822h-6.519v13.805h-9.509V122.701z"/>
		<g>
			<path fill-rule="evenodd" clip-rule="evenodd" fill="#C6C6C6" d="M163.677,130.235c0,3.097-2.51,5.606-5.601,5.606
				c-3.093,0-5.603-2.51-5.603-5.606c0-3.092,2.51-5.6,5.603-5.6C161.167,124.636,163.677,127.144,163.677,130.235z"/>
			<path fill="#004F9F" d="M150.207,134.582c-0.001-0.004-0.003-0.006-0.004-0.008c-0.134-0.241-0.254-0.491-0.365-0.743
				c-0.01-0.019-0.019-0.036-0.027-0.054c-0.102-0.237-0.189-0.479-0.27-0.724c-0.014-0.04-0.03-0.075-0.043-0.115
				c-0.073-0.23-0.131-0.467-0.185-0.706c-0.012-0.058-0.031-0.111-0.042-0.166c-0.048-0.227-0.078-0.46-0.107-0.692
				c-0.009-0.069-0.025-0.141-0.032-0.212c-0.033-0.305-0.049-0.612-0.049-0.927c0-0.254,0.015-0.507,0.039-0.755
				c0.018-0.225,0.05-0.445,0.084-0.664c0-0.004,0.001-0.006,0.001-0.008c-0.991,0.357-2.111,0.566-3.371,0.566
				c-5.827,0-8.819-3.988-8.819-8.667V97.701c0-4.908,3.221-8.743,8.896-8.743c5.676,0,8.668,3.758,8.668,8.436v23.237
				c0,0.463-0.039,0.92-0.1,1.367c0.001,0,0.003,0,0.004,0c0.541-0.238,1.11-0.423,1.7-0.551c0.01,0,0.02-0.004,0.031-0.006
				c0.265-0.056,0.534-0.097,0.809-0.131c0.038-0.004,0.074-0.012,0.111-0.018c0.31-0.03,0.622-0.048,0.939-0.048
				c0.313,0,0.62,0.016,0.925,0.048c0.069,0.006,0.134,0.021,0.203,0.031c0.234,0.028,0.469,0.06,0.697,0.107
				c0.054,0.012,0.103,0.03,0.155,0.04c0.242,0.054,0.483,0.113,0.717,0.187c0.031,0.01,0.06,0.024,0.089,0.034
				c0.254,0.081,0.503,0.175,0.747,0.278c0.012,0.004,0.022,0.01,0.034,0.016c1.073,0.467,2.038,1.135,2.846,1.959
				c0.174-0.981,0.29-1.999,0.29-3.084V97.778c0-11.581-8.972-16.873-18.866-16.873c-9.894,0-19.171,5.446-19.171,16.796v23.391
				c0,11.656,9.509,16.336,19.094,16.336c2.028,0,4.04-0.267,5.96-0.766C151.171,136.051,150.633,135.353,150.207,134.582z"/>
		</g>
	</g>
</g>
<path fill-rule="evenodd" clip-rule="evenodd" fill="#004F9F" d="M120.184,131.324c0,3.043-2.467,5.51-5.505,5.51
	c-3.04,0-5.507-2.467-5.507-5.51c0-3.039,2.467-5.504,5.507-5.504C117.717,125.82,120.184,128.285,120.184,131.324z"/>
<g>
</g>
<g>
</g>
<g>
</g>
<g>
</g>
<g>
</g>
<g>
</g>
</svg>
